<mxfile host="app.diagrams.net" modified="2024-01-09T12:53:31.420Z" agent="Mozilla/5.0 (X11; Linux x86_64) AppleWebKit/537.36 (KHTML, like Gecko) Chrome/120.0.0.0 Safari/537.36 Edg/120.0.0.0" etag="ZwPO3eersFA-zxIgD3aY" version="22.1.17" type="google" pages="2">
  <diagram id="D4zRHZIx4To10gLkAmXb" name="TES-Backend-AWS-Driagram">
    <mxGraphModel grid="1" page="1" gridSize="10" guides="1" tooltips="1" connect="1" arrows="1" fold="1" pageScale="1" pageWidth="850" pageHeight="1100" math="0" shadow="0">
      <root>
        <mxCell id="0" />
        <mxCell id="1" parent="0" />
        <mxCell id="PlVlshNIDyRJbv-uauSD-28" value="tes account" style="points=[[0,0],[0.25,0],[0.5,0],[0.75,0],[1,0],[1,0.25],[1,0.5],[1,0.75],[1,1],[0.75,1],[0.5,1],[0.25,1],[0,1],[0,0.75],[0,0.5],[0,0.25]];outlineConnect=0;gradientColor=none;html=1;whiteSpace=wrap;fontSize=12;fontStyle=0;container=1;pointerEvents=0;collapsible=0;recursiveResize=0;shape=mxgraph.aws4.group;grIcon=mxgraph.aws4.group_account;strokeColor=#CD2264;fillColor=none;verticalAlign=top;align=left;spacingLeft=30;fontColor=#CD2264;dashed=0;" vertex="1" parent="1">
          <mxGeometry x="990" y="180" width="610" height="390" as="geometry" />
        </mxCell>
        <mxCell id="PlVlshNIDyRJbv-uauSD-29" value="us-east-1" style="points=[[0,0],[0.25,0],[0.5,0],[0.75,0],[1,0],[1,0.25],[1,0.5],[1,0.75],[1,1],[0.75,1],[0.5,1],[0.25,1],[0,1],[0,0.75],[0,0.5],[0,0.25]];outlineConnect=0;gradientColor=none;html=1;whiteSpace=wrap;fontSize=12;fontStyle=0;container=1;pointerEvents=0;collapsible=0;recursiveResize=0;shape=mxgraph.aws4.group;grIcon=mxgraph.aws4.group_region;strokeColor=#00A4A6;fillColor=none;verticalAlign=top;align=left;spacingLeft=30;fontColor=#147EBA;dashed=1;" vertex="1" parent="PlVlshNIDyRJbv-uauSD-28">
          <mxGeometry x="30" y="30" width="550" height="340" as="geometry" />
        </mxCell>
        <mxCell id="PlVlshNIDyRJbv-uauSD-30" value="{stage}-tes-cognito-user-pool" style="sketch=0;points=[[0,0,0],[0.25,0,0],[0.5,0,0],[0.75,0,0],[1,0,0],[0,1,0],[0.25,1,0],[0.5,1,0],[0.75,1,0],[1,1,0],[0,0.25,0],[0,0.5,0],[0,0.75,0],[1,0.25,0],[1,0.5,0],[1,0.75,0]];outlineConnect=0;fontColor=#232F3E;fillColor=#DD344C;strokeColor=#ffffff;dashed=0;verticalLabelPosition=bottom;verticalAlign=top;align=center;html=1;fontSize=12;fontStyle=0;aspect=fixed;shape=mxgraph.aws4.resourceIcon;resIcon=mxgraph.aws4.cognito;" vertex="1" parent="PlVlshNIDyRJbv-uauSD-29">
          <mxGeometry x="375" y="40" width="78" height="78" as="geometry" />
        </mxCell>
        <mxCell id="PlVlshNIDyRJbv-uauSD-31" value="{stage}-tes-rest-api-gateway" style="sketch=0;points=[[0,0,0],[0.25,0,0],[0.5,0,0],[0.75,0,0],[1,0,0],[0,1,0],[0.25,1,0],[0.5,1,0],[0.75,1,0],[1,1,0],[0,0.25,0],[0,0.5,0],[0,0.75,0],[1,0.25,0],[1,0.5,0],[1,0.75,0]];outlineConnect=0;fontColor=#232F3E;fillColor=#8C4FFF;strokeColor=#ffffff;dashed=0;verticalLabelPosition=bottom;verticalAlign=top;align=center;html=1;fontSize=12;fontStyle=0;aspect=fixed;shape=mxgraph.aws4.resourceIcon;resIcon=mxgraph.aws4.api_gateway;" vertex="1" parent="PlVlshNIDyRJbv-uauSD-29">
          <mxGeometry x="40" y="40" width="78" height="78" as="geometry" />
        </mxCell>
        <mxCell id="PlVlshNIDyRJbv-uauSD-32" style="edgeStyle=orthogonalEdgeStyle;rounded=0;orthogonalLoop=1;jettySize=auto;html=1;exitX=1;exitY=0.5;exitDx=0;exitDy=0;exitPerimeter=0;" edge="1" parent="PlVlshNIDyRJbv-uauSD-29" source="PlVlshNIDyRJbv-uauSD-31" target="PlVlshNIDyRJbv-uauSD-36">
          <mxGeometry relative="1" as="geometry" />
        </mxCell>
        <mxCell id="PlVlshNIDyRJbv-uauSD-33" style="edgeStyle=orthogonalEdgeStyle;rounded=0;orthogonalLoop=1;jettySize=auto;html=1;exitX=1;exitY=0.5;exitDx=0;exitDy=0;exitPerimeter=0;entryX=0;entryY=0.5;entryDx=0;entryDy=0;entryPerimeter=0;" edge="1" parent="PlVlshNIDyRJbv-uauSD-29" source="PlVlshNIDyRJbv-uauSD-36" target="PlVlshNIDyRJbv-uauSD-30">
          <mxGeometry relative="1" as="geometry" />
        </mxCell>
        <mxCell id="PlVlshNIDyRJbv-uauSD-34" style="edgeStyle=orthogonalEdgeStyle;rounded=0;orthogonalLoop=1;jettySize=auto;html=1;exitX=0.5;exitY=1;exitDx=0;exitDy=0;exitPerimeter=0;" edge="1" parent="PlVlshNIDyRJbv-uauSD-29" source="PlVlshNIDyRJbv-uauSD-36" target="PlVlshNIDyRJbv-uauSD-37">
          <mxGeometry relative="1" as="geometry" />
        </mxCell>
        <mxCell id="PlVlshNIDyRJbv-uauSD-36" value="{stage}-tes-proxy-lambda" style="sketch=0;points=[[0,0,0],[0.25,0,0],[0.5,0,0],[0.75,0,0],[1,0,0],[0,1,0],[0.25,1,0],[0.5,1,0],[0.75,1,0],[1,1,0],[0,0.25,0],[0,0.5,0],[0,0.75,0],[1,0.25,0],[1,0.5,0],[1,0.75,0]];outlineConnect=0;fontColor=#232F3E;fillColor=#ED7100;strokeColor=#ffffff;dashed=0;verticalLabelPosition=bottom;verticalAlign=top;align=center;html=1;fontSize=12;fontStyle=0;aspect=fixed;shape=mxgraph.aws4.resourceIcon;resIcon=mxgraph.aws4.lambda;" vertex="1" parent="PlVlshNIDyRJbv-uauSD-29">
          <mxGeometry x="220" y="40" width="78" height="78" as="geometry" />
        </mxCell>
        <mxCell id="PlVlshNIDyRJbv-uauSD-37" value="{email}-{deploy_model_id}-awsCredentials" style="sketch=0;points=[[0,0,0],[0.25,0,0],[0.5,0,0],[0.75,0,0],[1,0,0],[0,1,0],[0.25,1,0],[0.5,1,0],[0.75,1,0],[1,1,0],[0,0.25,0],[0,0.5,0],[0,0.75,0],[1,0.25,0],[1,0.5,0],[1,0.75,0]];outlineConnect=0;fontColor=#232F3E;fillColor=#DD344C;strokeColor=#ffffff;dashed=0;verticalLabelPosition=bottom;verticalAlign=top;align=center;html=1;fontSize=12;fontStyle=0;aspect=fixed;shape=mxgraph.aws4.resourceIcon;resIcon=mxgraph.aws4.secrets_manager;" vertex="1" parent="PlVlshNIDyRJbv-uauSD-29">
          <mxGeometry x="360" y="210" width="78" height="78" as="geometry" />
        </mxCell>
        <mxCell id="PlVlshNIDyRJbv-uauSD-38" value="{stage}-tes-s3-bucket" style="sketch=0;points=[[0,0,0],[0.25,0,0],[0.5,0,0],[0.75,0,0],[1,0,0],[0,1,0],[0.25,1,0],[0.5,1,0],[0.75,1,0],[1,1,0],[0,0.25,0],[0,0.5,0],[0,0.75,0],[1,0.25,0],[1,0.5,0],[1,0.75,0]];outlineConnect=0;fontColor=#232F3E;fillColor=#7AA116;strokeColor=#ffffff;dashed=0;verticalLabelPosition=bottom;verticalAlign=top;align=center;html=1;fontSize=12;fontStyle=0;aspect=fixed;shape=mxgraph.aws4.resourceIcon;resIcon=mxgraph.aws4.s3;" vertex="1" parent="PlVlshNIDyRJbv-uauSD-29">
          <mxGeometry x="130" y="210" width="78" height="78" as="geometry" />
        </mxCell>
        <mxCell id="yXmJS0d1MN3MfVlyGnGq-1" style="edgeStyle=orthogonalEdgeStyle;rounded=0;orthogonalLoop=1;jettySize=auto;html=1;exitX=0.5;exitY=1;exitDx=0;exitDy=0;exitPerimeter=0;entryX=0.5;entryY=0;entryDx=0;entryDy=0;entryPerimeter=0;" edge="1" parent="PlVlshNIDyRJbv-uauSD-29" source="PlVlshNIDyRJbv-uauSD-36" target="PlVlshNIDyRJbv-uauSD-38">
          <mxGeometry relative="1" as="geometry" />
        </mxCell>
        <mxCell id="-cDP2MFHGOq2Vr8Ry7fx-2" style="edgeStyle=orthogonalEdgeStyle;rounded=0;orthogonalLoop=1;jettySize=auto;html=1;exitX=0.5;exitY=0;exitDx=0;exitDy=0;exitPerimeter=0;entryX=0.5;entryY=0;entryDx=0;entryDy=0;entryPerimeter=0;" edge="1" parent="PlVlshNIDyRJbv-uauSD-29" source="PlVlshNIDyRJbv-uauSD-31" target="PlVlshNIDyRJbv-uauSD-30">
          <mxGeometry relative="1" as="geometry" />
        </mxCell>
        <mxCell id="PlVlshNIDyRJbv-uauSD-41" value="client account" style="points=[[0,0],[0.25,0],[0.5,0],[0.75,0],[1,0],[1,0.25],[1,0.5],[1,0.75],[1,1],[0.75,1],[0.5,1],[0.25,1],[0,1],[0,0.75],[0,0.5],[0,0.25]];outlineConnect=0;gradientColor=none;html=1;whiteSpace=wrap;fontSize=12;fontStyle=0;container=1;pointerEvents=0;collapsible=0;recursiveResize=0;shape=mxgraph.aws4.group;grIcon=mxgraph.aws4.group_account;strokeColor=#CD2264;fillColor=none;verticalAlign=top;align=left;spacingLeft=30;fontColor=#CD2264;dashed=0;" vertex="1" parent="1">
          <mxGeometry x="1110" y="590" width="410" height="230" as="geometry" />
        </mxCell>
        <mxCell id="PlVlshNIDyRJbv-uauSD-42" value="us-east-1" style="points=[[0,0],[0.25,0],[0.5,0],[0.75,0],[1,0],[1,0.25],[1,0.5],[1,0.75],[1,1],[0.75,1],[0.5,1],[0.25,1],[0,1],[0,0.75],[0,0.5],[0,0.25]];outlineConnect=0;gradientColor=none;html=1;whiteSpace=wrap;fontSize=12;fontStyle=0;container=1;pointerEvents=0;collapsible=0;recursiveResize=0;shape=mxgraph.aws4.group;grIcon=mxgraph.aws4.group_region;strokeColor=#00A4A6;fillColor=none;verticalAlign=top;align=left;spacingLeft=30;fontColor=#147EBA;dashed=1;" vertex="1" parent="PlVlshNIDyRJbv-uauSD-41">
          <mxGeometry x="30" y="29" width="350" height="171" as="geometry" />
        </mxCell>
        <mxCell id="PlVlshNIDyRJbv-uauSD-44" value="CloudFormation" style="sketch=0;points=[[0,0,0],[0.25,0,0],[0.5,0,0],[0.75,0,0],[1,0,0],[0,1,0],[0.25,1,0],[0.5,1,0],[0.75,1,0],[1,1,0],[0,0.25,0],[0,0.5,0],[0,0.75,0],[1,0.25,0],[1,0.5,0],[1,0.75,0]];points=[[0,0,0],[0.25,0,0],[0.5,0,0],[0.75,0,0],[1,0,0],[0,1,0],[0.25,1,0],[0.5,1,0],[0.75,1,0],[1,1,0],[0,0.25,0],[0,0.5,0],[0,0.75,0],[1,0.25,0],[1,0.5,0],[1,0.75,0]];outlineConnect=0;fontColor=#232F3E;fillColor=#E7157B;strokeColor=#ffffff;dashed=0;verticalLabelPosition=bottom;verticalAlign=top;align=center;html=1;fontSize=12;fontStyle=0;aspect=fixed;shape=mxgraph.aws4.resourceIcon;resIcon=mxgraph.aws4.cloudformation;" vertex="1" parent="PlVlshNIDyRJbv-uauSD-42">
          <mxGeometry x="100" y="46" width="78" height="78" as="geometry" />
        </mxCell>
        <mxCell id="X1H-q0pLxA3UmEPs96hC-1" value="source-code-s3-bucket" style="sketch=0;points=[[0,0,0],[0.25,0,0],[0.5,0,0],[0.75,0,0],[1,0,0],[0,1,0],[0.25,1,0],[0.5,1,0],[0.75,1,0],[1,1,0],[0,0.25,0],[0,0.5,0],[0,0.75,0],[1,0.25,0],[1,0.5,0],[1,0.75,0]];outlineConnect=0;fontColor=#232F3E;fillColor=#7AA116;strokeColor=#ffffff;dashed=0;verticalLabelPosition=bottom;verticalAlign=top;align=center;html=1;fontSize=12;fontStyle=0;aspect=fixed;shape=mxgraph.aws4.resourceIcon;resIcon=mxgraph.aws4.s3;" vertex="1" parent="PlVlshNIDyRJbv-uauSD-42">
          <mxGeometry x="236" y="45" width="78" height="78" as="geometry" />
        </mxCell>
        <mxCell id="PlVlshNIDyRJbv-uauSD-46" style="edgeStyle=orthogonalEdgeStyle;rounded=0;orthogonalLoop=1;jettySize=auto;html=1;exitX=0.5;exitY=1;exitDx=0;exitDy=0;exitPerimeter=0;entryX=0.5;entryY=0;entryDx=0;entryDy=0;entryPerimeter=0;" edge="1" parent="1" source="PlVlshNIDyRJbv-uauSD-36" target="PlVlshNIDyRJbv-uauSD-44">
          <mxGeometry relative="1" as="geometry">
            <mxPoint x="1279" y="740" as="targetPoint" />
          </mxGeometry>
        </mxCell>
        <mxCell id="PlVlshNIDyRJbv-uauSD-47" style="edgeStyle=orthogonalEdgeStyle;rounded=0;orthogonalLoop=1;jettySize=auto;html=1;exitX=0;exitY=0.5;exitDx=0;exitDy=0;exitPerimeter=0;" edge="1" parent="1" source="PlVlshNIDyRJbv-uauSD-44" target="PlVlshNIDyRJbv-uauSD-38">
          <mxGeometry relative="1" as="geometry" />
        </mxCell>
        <mxCell id="-cDP2MFHGOq2Vr8Ry7fx-1" style="edgeStyle=orthogonalEdgeStyle;rounded=0;orthogonalLoop=1;jettySize=auto;html=1;exitX=0.5;exitY=1;exitDx=0;exitDy=0;exitPerimeter=0;entryX=0.5;entryY=0;entryDx=0;entryDy=0;entryPerimeter=0;" edge="1" parent="1" source="PlVlshNIDyRJbv-uauSD-36" target="X1H-q0pLxA3UmEPs96hC-1">
          <mxGeometry relative="1" as="geometry">
            <Array as="points">
              <mxPoint x="1279" y="540" />
              <mxPoint x="1415" y="540" />
            </Array>
          </mxGeometry>
        </mxCell>
      </root>
    </mxGraphModel>
  </diagram>
  <diagram name="TES-Container-Model-AWS-Diagram" id="_ynKqM1cSnXxm6tfsypw">
    <mxGraphModel grid="1" page="1" gridSize="10" guides="1" tooltips="1" connect="1" arrows="1" fold="1" pageScale="1" pageWidth="850" pageHeight="1100" math="0" shadow="0">
      <root>
        <mxCell id="LmsgElpD16I1X1yV-Cmz-0" />
        <mxCell id="LmsgElpD16I1X1yV-Cmz-1" parent="LmsgElpD16I1X1yV-Cmz-0" />
        <mxCell id="LmsgElpD16I1X1yV-Cmz-2" value="us-east-1a" style="sketch=0;outlineConnect=0;gradientColor=none;html=1;whiteSpace=wrap;fontSize=12;fontStyle=0;shape=mxgraph.aws4.group;grIcon=mxgraph.aws4.group_availability_zone;strokeColor=#545B64;fillColor=none;verticalAlign=top;align=left;spacingLeft=30;fontColor=#545B64;dashed=1;container=0;" vertex="1" parent="LmsgElpD16I1X1yV-Cmz-1">
          <mxGeometry x="310" y="160" width="305" height="430" as="geometry" />
        </mxCell>
        <mxCell id="LmsgElpD16I1X1yV-Cmz-3" value="internet-gateway" style="sketch=0;outlineConnect=0;fontColor=#232F3E;gradientColor=none;fillColor=#8C4FFF;strokeColor=none;dashed=0;verticalLabelPosition=bottom;verticalAlign=top;align=center;html=1;fontSize=12;fontStyle=0;aspect=fixed;pointerEvents=1;shape=mxgraph.aws4.internet_gateway;container=0;" vertex="1" parent="LmsgElpD16I1X1yV-Cmz-1">
          <mxGeometry x="150" y="380" width="78" height="78" as="geometry" />
        </mxCell>
        <mxCell id="LmsgElpD16I1X1yV-Cmz-4" value="public-subnet" style="points=[[0,0],[0.25,0],[0.5,0],[0.75,0],[1,0],[1,0.25],[1,0.5],[1,0.75],[1,1],[0.75,1],[0.5,1],[0.25,1],[0,1],[0,0.75],[0,0.5],[0,0.25]];outlineConnect=0;gradientColor=none;html=1;whiteSpace=wrap;fontSize=12;fontStyle=0;container=0;pointerEvents=0;collapsible=0;recursiveResize=0;shape=mxgraph.aws4.group;grIcon=mxgraph.aws4.group_security_group;grStroke=0;strokeColor=#7AA116;fillColor=#F2F6E8;verticalAlign=top;align=left;spacingLeft=30;fontColor=#248814;dashed=0;" vertex="1" parent="LmsgElpD16I1X1yV-Cmz-1">
          <mxGeometry x="342" y="201" width="234" height="360" as="geometry" />
        </mxCell>
        <mxCell id="LmsgElpD16I1X1yV-Cmz-7" value="nacl" style="sketch=0;outlineConnect=0;fontColor=#232F3E;gradientColor=none;fillColor=#8C4FFF;strokeColor=none;dashed=0;verticalLabelPosition=bottom;verticalAlign=top;align=center;html=1;fontSize=12;fontStyle=0;aspect=fixed;pointerEvents=1;shape=mxgraph.aws4.network_access_control_list;container=0;" vertex="1" parent="LmsgElpD16I1X1yV-Cmz-1">
          <mxGeometry x="497" y="201" width="78" height="78" as="geometry" />
        </mxCell>
        <mxCell id="LmsgElpD16I1X1yV-Cmz-8" value="{app}-vpc" style="points=[[0,0],[0.25,0],[0.5,0],[0.75,0],[1,0],[1,0.25],[1,0.5],[1,0.75],[1,1],[0.75,1],[0.5,1],[0.25,1],[0,1],[0,0.75],[0,0.5],[0,0.25]];outlineConnect=0;gradientColor=none;html=1;whiteSpace=wrap;fontSize=12;fontStyle=0;container=0;pointerEvents=0;collapsible=0;recursiveResize=0;shape=mxgraph.aws4.group;grIcon=mxgraph.aws4.group_vpc2;strokeColor=#8C4FFF;fillColor=none;verticalAlign=top;align=left;spacingLeft=30;fontColor=#AAB7B8;dashed=0;" vertex="1" parent="LmsgElpD16I1X1yV-Cmz-1">
          <mxGeometry x="190" y="120" width="465" height="500" as="geometry" />
        </mxCell>
        <mxCell id="LmsgElpD16I1X1yV-Cmz-11" value="client account" style="points=[[0,0],[0.25,0],[0.5,0],[0.75,0],[1,0],[1,0.25],[1,0.5],[1,0.75],[1,1],[0.75,1],[0.5,1],[0.25,1],[0,1],[0,0.75],[0,0.5],[0,0.25]];outlineConnect=0;gradientColor=none;html=1;whiteSpace=wrap;fontSize=12;fontStyle=0;container=0;pointerEvents=0;collapsible=0;recursiveResize=0;shape=mxgraph.aws4.group;grIcon=mxgraph.aws4.group_account;strokeColor=#CD2264;fillColor=none;verticalAlign=top;align=left;spacingLeft=30;fontColor=#CD2264;dashed=0;" vertex="1" parent="LmsgElpD16I1X1yV-Cmz-1">
          <mxGeometry x="140" y="30" width="575" height="640" as="geometry" />
        </mxCell>
        <mxCell id="LmsgElpD16I1X1yV-Cmz-13" value="us-east-1" style="points=[[0,0],[0.25,0],[0.5,0],[0.75,0],[1,0],[1,0.25],[1,0.5],[1,0.75],[1,1],[0.75,1],[0.5,1],[0.25,1],[0,1],[0,0.75],[0,0.5],[0,0.25]];outlineConnect=0;gradientColor=none;html=1;whiteSpace=wrap;fontSize=12;fontStyle=0;container=0;pointerEvents=0;collapsible=0;recursiveResize=0;shape=mxgraph.aws4.group;grIcon=mxgraph.aws4.group_region;strokeColor=#00A4A6;fillColor=none;verticalAlign=top;align=left;spacingLeft=30;fontColor=#147EBA;dashed=1;" vertex="1" parent="LmsgElpD16I1X1yV-Cmz-1">
          <mxGeometry x="160" y="71" width="525" height="579" as="geometry" />
        </mxCell>
        <mxCell id="LmsgElpD16I1X1yV-Cmz-14" value="route-table" style="sketch=0;outlineConnect=0;fontColor=#232F3E;gradientColor=none;fillColor=#8C4FFF;strokeColor=none;dashed=0;verticalLabelPosition=bottom;verticalAlign=top;align=center;html=1;fontSize=12;fontStyle=0;aspect=fixed;pointerEvents=1;shape=mxgraph.aws4.route_table;container=0;" vertex="1" parent="LmsgElpD16I1X1yV-Cmz-1">
          <mxGeometry x="204" y="160" width="78" height="76" as="geometry" />
        </mxCell>
        <mxCell id="LmsgElpD16I1X1yV-Cmz-15" value="container-ec2-instance-sg" style="fillColor=none;strokeColor=#DD3522;verticalAlign=top;fontStyle=0;fontColor=#DD3522;whiteSpace=wrap;html=1;container=0;" vertex="1" parent="LmsgElpD16I1X1yV-Cmz-1">
          <mxGeometry x="378" y="340" width="167" height="170" as="geometry" />
        </mxCell>
        <mxCell id="LmsgElpD16I1X1yV-Cmz-16" value="container-ec2-instance" style="sketch=0;points=[[0,0,0],[0.25,0,0],[0.5,0,0],[0.75,0,0],[1,0,0],[0,1,0],[0.25,1,0],[0.5,1,0],[0.75,1,0],[1,1,0],[0,0.25,0],[0,0.5,0],[0,0.75,0],[1,0.25,0],[1,0.5,0],[1,0.75,0]];outlineConnect=0;fontColor=#232F3E;fillColor=#ED7100;strokeColor=#ffffff;dashed=0;verticalLabelPosition=bottom;verticalAlign=top;align=center;html=1;fontSize=12;fontStyle=0;aspect=fixed;shape=mxgraph.aws4.resourceIcon;resIcon=mxgraph.aws4.ec2;container=0;" vertex="1" parent="LmsgElpD16I1X1yV-Cmz-1">
          <mxGeometry x="424" y="380" width="78" height="78" as="geometry" />
        </mxCell>
        <mxCell id="LmsgElpD16I1X1yV-Cmz-17" style="edgeStyle=orthogonalEdgeStyle;rounded=0;orthogonalLoop=1;jettySize=auto;html=1;" edge="1" parent="LmsgElpD16I1X1yV-Cmz-1" source="LmsgElpD16I1X1yV-Cmz-3" target="LmsgElpD16I1X1yV-Cmz-16">
          <mxGeometry relative="1" as="geometry" />
        </mxCell>
        <mxCell id="LmsgElpD16I1X1yV-Cmz-18" value="elastic-ip" style="outlineConnect=0;dashed=0;verticalLabelPosition=bottom;verticalAlign=top;align=center;html=1;shape=mxgraph.aws3.elastic_ip;fillColor=#F58534;gradientColor=none;" vertex="1" parent="LmsgElpD16I1X1yV-Cmz-1">
          <mxGeometry x="378" y="260" width="76.5" height="21" as="geometry" />
        </mxCell>
      </root>
    </mxGraphModel>
  </diagram>
</mxfile>
